<?xml version="1.0" encoding="utf-8"?>
<!-- Generator: Adobe Illustrator 21.0.0, SVG Export Plug-In . SVG Version: 6.00 Build 0)  -->
<svg version="1.1" id="katman_1" xmlns="http://www.w3.org/2000/svg" xmlns:xlink="http://www.w3.org/1999/xlink" x="0px" y="0px"
	 viewBox="0 0 230.7 107.5" style="enable-background:new 0 0 230.7 107.5;" xml:space="preserve">
<style type="text/css">
	.st0{fill:#010202;}
	.st1{fill:#F6A121;}
	.st2{fill:#333335;}
</style>
<g id="XMLID_1_">
	<path id="XMLID_42_" class="st0" d="M47.3,14H78c3.9,0,6.3,3.7,4.8,7.8l-9.9,25.8c-0.3,0.8-0.7,1.5-0.4,2.3c0.5,1.3,2.3,1,3.5,1
		h24.9c1.5-0.1,3.4,0.2,4.1-0.4c1.1-0.8,1.7-2.8,1.7-4.2s-1.4-1.2-2.6-1.2l-17-0.1c-3.2-0.5-5-3.4-3.9-6.5l6.5-18.2
		c1.2-3.5,5.5-6.4,9.4-6.4h34.4l-4.6,12.8h-25.1c-1,0-2,0.7-2.4,1.7l-0.9,2.7c-0.3,0.9,0.2,1.7,1.2,1.7H120c2.2,0.7,4.1,1.9,4.4,5.2
		l-1.4,4.2l0,0l-0.8,2.5h-0.1l-2.2,6.1c-1.6,4.9-3.2,12.4-9.8,12.4h-43l-4.3-0.1c-2.8-0.1-6.1,0.1-7.4-2.4c-1.6-3.1,1-7.8,2.2-10.8
		l8-21.1c0.4-1-0.2-1.9-1.4-1.9H52.6c-1.2,0-2.4,0.8-2.8,1.9l-9.3,24.6c-1.1,2.8-1.7,5.9-4.1,7.9c-2.4,1.9-4,2.2-6.8,2.2H9.1
		c-5.2,0-7.4-3.8-5.5-8.8l7.6-20.1l1.8-0.7l0.1,0.1l0.2,0.2l0.2,0.2l0.1,0.1L13,36.9l4.5,2.1l1.4-1.9h0.2l0.3,0.1h0.3h0.2l0.8,2.3
		l3.5-0.5l-3.5,10.3c-0.4,1,0.2,1.8,1.1,1.8H25c1,0,2.1-0.9,2.4-1.9l10-27.7C39,17.4,43.4,14,47.3,14"/>
	<path id="XMLID_2_" class="st0" d="M110.9,70H106l-1.4,4.1h4.9 M100.2,79.7l3.7-10.6c0.4-1.1,1.1-1.6,2.2-1.6h6.5
		c1.1,0,1.4,0.5,1.1,1.6L110,79.7h-2.4l1.1-3.3h-4.9l-1.1,3.3H100.2z M79.6,79.7l3.7-10.6c0.4-1.1,1.1-1.6,2.2-1.6H92
		c1.1,0,1.4,0.5,1.1,1.6l-3.7,10.6H87l3.4-9.8h-4.9l-3.4,9.8H79.6z M69.5,70.9l-3.1,8.8h2.4l3.1-8.8H69.5z M70.7,67.5L69.9,70h1.6
		l1.4-1.8l0.2-0.7H70.7z M50.8,72.4h1.5l3.4-4.9h2.4l-3.4,4.9c0.9,0.1,1.3,0.7,1.3,1.6l0.3,5.7h-2.4l-0.3-4.9H50l-1.7,4.9h-2.4
		l4.2-12.2h2.4L50.8,72.4z M36.5,70h-4.9l-1.4,4h4.9L36.5,70z M25.8,79.7l3.7-10.6c0.4-1.1,1.1-1.6,2.2-1.6h6.5
		c1.1,0,1.4,0.5,1.1,1.6l-3.7,10.6h-2.4l1.1-3.3h-4.9l-1.1,3.3H25.8z M12.2,70l-3.4,9.8H6.4L9.8,70H6.5l-3.4,9.8H0.7l3.7-10.6
		c0.4-1.1,1.1-1.6,2.2-1.6h10.6c1.1,0,1.4,0.5,1.1,1.6l-3.7,10.6h-2.4l3.4-9.8H12.2z"/>
	<path id="XMLID_3_" class="st1" d="M199,32.1l3.8-0.4l2.4,8.2l-5.8,3.1c0.1,1.1,0.2,2.2,0.2,3.3c0,1.2-0.1,2.3-0.2,3.4l5.8,3
		l-2.4,8.2l-6.5-0.6c-1,2.1-2.3,4-3.7,5.7l3.2,5.6l-6.5,5.6l-5-3.9c-2,1.2-4.1,2.2-6.3,2.9l-0.3,6.2l-8.5,1.2l-2.1-5.9
		c-2.4-0.1-4.7-0.5-6.9-1.1l-3.6,5.1l-7.8-3.6l1.5-6.2c-1.9-1.3-3.6-2.9-5.1-4.6l-5.9,2.4l-4.6-7.2l4.7-4.5
		c-0.8-2.1-1.4-4.2-1.8-6.5l-6.4-1.3v-8.6l6.5-1.2c0.3-1.5,0.4-2.7,0.9-4c1.8,2.2,5.7,3.6,8,5.5l0.6,0.5c1,0.9,2,1.9,3,2.8l0.1,0.1
		c0,0.3,0,0.6,0,0.8c0,10.1,8.1,18.2,18,18.2c10,0,18.1-8.2,18.1-18.2c0-0.3,0-0.7,0-1l1-1c3.2-3.4,6.4-6.8,9.7-10.1l1.6-1.6
		 M178.2,16.4c2.2,0.7,4.3,1.7,6.3,2.9l4.9-3.9l4.7,4l-0.1,0.1c-4.7,3.4-9.3,7-13.9,10.7l-1.5,1.2c-2.9-2.1-6.5-3.3-10.3-3.3
		c-4.9,0-9.4,2-12.6,5.2l-0.2-0.1c-5-3.8-10.5-3.6-15.6,0l-0.6,0.6l-4.4-4.2l4.7-7.2l6,2.4c1.5-1.6,3.1-3,4.8-4.2l-1.5-6.1l7.8-3.6
		l3.7,5.1c2.2-0.6,4.5-0.9,6.9-1l2-5.9l8.5,1.2L178.2,16.4z"/>
	<path id="XMLID_30_" class="st0" d="M144,37.6c6.7,4.9,13.4,12.5,19,19.5c1.1,1.3,3.1,4.9,5.1,4.7c1.1-0.1,2.2-1.3,3.4-2.5
		c17.3-20,34.6-37.5,51.5-52c2.3-1.9,4.8-3.8,6.9-5.9c1.5-1.4,0.9-1.7-1.8-1c-2.4,0.7-4.3,1.8-6.5,3.1c-17.1,10-35.5,23.2-54.3,40
		c-4.4-3-8.3-5.9-12.7-8.9c-4.1-3.1-8.2-3.2-12.4-0.8C138.7,35.9,141.5,35.8,144,37.6"/>
	<path id="XMLID_4_" class="st2" d="M191.2,64l-4.8-3.2c-0.5-0.3-0.6-0.7-0.3-1.2l1.9-3c0.3-0.5,0.7-0.6,1.2-0.3l4.8,3.2l-0.7,1.1
		l-1.5-1l-1.5,2.2l1.5,1 M182.4,71.4l-3.6-4.5c-0.4-0.5-0.3-0.9,0.1-1.2l2.8-2.2c0.5-0.4,0.9-0.3,1.2,0.1l3.6,4.5l-1,0.8l-3.3-4.2
		l-2.1,1.6l3.3,4.2L182.4,71.4z M165.1,70.3h0.8l0.9-2.7h1.3l-0.9,2.7c0.5,0.1,0.8,0.3,1,0.9l1.2,3.1h-1.3l-1.1-2.7h-2v2.7h-1.3
		v-6.6h1.3v2.6H165.1z M153,70.4l2.3-5.4c0.2-0.6,0.6-0.7,1.2-0.5l3.3,1.4c0.6,0.2,0.7,0.6,0.5,1.2l-2.3,5.4l-1.3-0.5l0.7-1.7
		l-2.5-1.1l-0.7,1.7L153,70.4z M158.8,67l-2.5-1.1l-0.9,2.1l2.5,1.1L158.8,67z M150.2,60.5l-4.3,3.3l-0.8-1.1l4.3-3.3l-1.1-1.4
		l-4.3,3.3l-0.8-1.1l4.7-3.5c0.5-0.4,0.9-0.3,1.3,0.2l3.5,4.7c0.4,0.5,0.3,0.9-0.2,1.3l-4.7,3.5l-0.8-1.1l4.3-3.3L150.2,60.5z
		 M174.1,69l1.1,4.6l1.3-0.3l-1.1-4.7L174.1,69z M173.7,67.2l0.3,1.4l0.6-0.2l0.3-1.3v-0.2L173.7,67.2z M155,23.2l3.4,5.6l1.5-0.9
		l-3.4-5.7L155,23.2z M182.1,22.8l-5.3-2.6c-0.7-0.4-1.2-0.2-1.6,0.5l-0.8,1.6c-0.4,0.7-0.2,1.2,0.5,1.6l3.7,1.8l-0.3,0.5l-4.8-2.4
		l-0.8,1.6L178,28c0.7,0.3,1.2,0.2,1.6-0.5l0.8-1.6c0.3-0.7,0.2-1.2-0.5-1.6l-3.7-1.8l0.3-0.5l4.2,2.1L182.1,22.8z M163.2,26
		l-0.3-5.3c0-0.8,0.3-1.2,1.1-1.2l4.7-0.3c0.8,0,1.2,0.3,1.2,1.1l0.3,5.3l-1.8,0.1l-0.3-4.7l-3.5,0.2l0.3,4.7L163.2,26z M153.7,20.9
		l1,1.7l0.8-0.5l-0.1-1.8l-0.1-0.2L153.7,20.9z M189,57.8l-1.5,2.2l1.8,1.2l1.5-2.2L189,57.8z"/>
	<path id="XMLID_5_" class="st1" d="M32,20.1l1.3-0.1l0.9,2.9l-2,1.1c0,0.4,0.1,0.8,0.1,1.2c0,0.4,0,0.8-0.1,1.2l2,1l-0.8,2.9
		l-2.3-0.2c-0.4,0.7-0.8,1.4-1.3,2l1.1,1.9l-2.3,2l-1.8-1.4c-0.7,0.4-1.4,0.8-2.2,1l-0.1,2.2l-3,0.4L20.9,36c-0.8,0-1.6-0.2-2.4-0.4
		l-1.3,1.8l-2.7-1.2L15,34c-0.7-0.5-1.3-1-1.8-1.6l-2.1,0.8l-1.6-2.5l1.7-1.6c-0.3-0.7-0.5-1.5-0.6-2.3l-2.2-0.4v-3l2.2-0.4
		c0.1-0.5,0.1-0.9,0.3-1.4c0.6,0.8,2,1.2,2.8,1.9l0.2,0.2c0.4,0.3,0.7,0.7,1.1,1l0,0c0,0.1,0,0.2,0,0.3c0,3.5,2.8,6.4,6.3,6.4
		s6.3-2.8,6.3-6.4c0-0.1,0-0.2,0-0.4l0.3-0.4c1.1-1.2,2.2-2.4,3.4-3.5L32,20.1 M24.8,14.6c0.8,0.3,1.5,0.6,2.2,1l1.7-1.4l1.6,1.4
		l0,0c-1.6,1.2-3.3,2.4-4.8,3.7L25,19.7c-1-0.7-2.3-1.1-3.6-1.1c-1.7,0-3.3,0.7-4.4,1.8h-0.1c-1.8-1.3-3.7-1.3-5.4,0l-0.2,0.2
		l-1.6-1.4l1.6-2.5l2.1,0.8c0.5-0.5,1.1-1,1.7-1.5l-0.5-2.1l2.7-1.3l1.3,1.8c0.8-0.2,1.6-0.3,2.4-0.4l0.7-2l3,0.4L24.8,14.6z"/>
	<path id="XMLID_14_" class="st0" d="M12.8,22c2.3,1.7,4.7,4.4,6.6,6.8c0.4,0.5,1.1,1.7,1.8,1.6c0.4-0.1,0.8-0.5,1.2-0.9
		c6-7,12.1-13.1,18-18.2c0.8-0.7,1.7-1.3,2.4-2c0.5-0.5,0.3-0.6-0.6-0.3c-0.8,0.2-1.5,0.6-2.3,1.1c-6,3.5-12.4,8.1-19,14
		c-1.5-1-2.9-2.1-4.4-3.1c-1.4-1.1-2.9-1.1-4.3-0.3C11,21.4,12,21.3,12.8,22"/>
	<path id="XMLID_6_" class="st2" d="M29.3,31.2l-1.7-1.1c-0.2-0.1-0.2-0.3-0.1-0.4l0.7-1c0.1-0.2,0.3-0.2,0.4-0.1l1.7,1.1L30.1,30
		l-0.5-0.3l-0.5,0.8l0.5,0.3 M26.2,33.8L25,32.2c-0.1-0.2-0.1-0.3,0.1-0.4l1-0.8c0.2-0.1,0.3-0.1,0.4,0.1l1.2,1.6L27.3,33l-1.1-1.5
		L25.4,32l1.1,1.5L26.2,33.8z M20.2,33.4h0.3l0.3-0.9h0.5L21,33.4c0.2,0,0.3,0.1,0.4,0.3l0.4,1.1h-0.5l-0.4-0.9h-0.7v0.9h-0.5v-2.3
		h0.5V33.4z M15.9,33.4l0.8-1.9c0.1-0.2,0.2-0.2,0.4-0.2l1.2,0.5c0.2,0.1,0.2,0.2,0.2,0.4l-0.8,2L17.3,34l0.2-0.6L16.6,33l-0.2,0.6
		L15.9,33.4z M18,32.2l-0.9-0.4l-0.3,0.7l0.9,0.5L18,32.2z M15,30l-1.5,1.1l-0.3-0.4l1.5-1.1l-0.4-0.5l-1.5,1.1l-0.3-0.4l1.6-1.2
		c0.2-0.1,0.3-0.1,0.4,0.1l1.2,1.6c0.1,0.2,0.1,0.3-0.1,0.4L14.2,32l-0.3-0.4l1.5-1.1L15,30z M23.3,32.9l0.4,1.6l0.4-0.1l-0.4-1.6
		L23.3,32.9z M23.2,32.3l0.1,0.5l0.2-0.1l0.1-0.4v-0.1L23.2,32.3z M16.7,16.9l1.2,2l0.5-0.3l-1.2-2L16.7,16.9z M26.1,16.8l-1.8-0.9
		c-0.2-0.1-0.4-0.1-0.6,0.2l-0.3,0.6c-0.1,0.2-0.1,0.4,0.2,0.6l1.3,0.6L24.8,18l-1.7-0.8l-0.3,0.6l1.8,0.9c0.2,0.1,0.4,0.1,0.6-0.2
		l0.3-0.6c0.1-0.2,0.1-0.4-0.2-0.6L24,16.7l0.1-0.2l1.5,0.7L26.1,16.8z M19.5,17.9l-0.1-1.8c0-0.3,0.1-0.4,0.4-0.4l1.6-0.1
		c0.3,0,0.4,0.1,0.4,0.4l0.1,1.8h-0.6l-0.1-1.6L20,16.3l0.1,1.6H19.5z M16.2,16.2l0.3,0.6l0.3-0.2V16v-0.1L16.2,16.2z M28.5,29
		L28,29.8l0.6,0.4l0.5-0.8L28.5,29z"/>
</g>
<g>
	<path d="M8.6,91.4c0.6,0.6,1,1.3,1.1,2.3H8.4c-0.1-0.6-0.4-1.1-0.9-1.5s-1.1-0.5-1.8-0.5c-0.6,0-1.2,0.1-1.7,0.4
		c-0.5,0.3-1,0.7-1.4,1.3c-0.4,0.5-0.6,1.2-0.8,1.9c-0.1,0.3-0.1,0.6-0.1,0.9c0,0.9,0.2,1.5,0.7,2c0.5,0.5,1.1,0.7,1.9,0.7
		c0.8,0,1.5-0.2,2.1-0.5c0.6-0.4,1.1-0.9,1.4-1.5h1.3c-0.4,1-1.1,1.7-1.9,2.3c-0.8,0.6-1.8,0.8-3,0.8c-0.8,0-1.4-0.2-2-0.5
		c-0.6-0.3-1-0.7-1.3-1.3c-0.3-0.6-0.4-1.2-0.4-1.9c0-0.4,0-0.7,0.1-1c0.2-0.9,0.5-1.7,1-2.5c0.5-0.7,1.1-1.3,1.9-1.7
		s1.5-0.6,2.4-0.6C7,90.6,7.9,90.8,8.6,91.4z"/>
	<path d="M20,91c0.6,0.3,1,0.8,1.4,1.4c0.3,0.6,0.5,1.3,0.5,2c0,0.4,0,0.7-0.1,1.1c-0.2,0.9-0.5,1.7-1,2.4c-0.5,0.7-1.1,1.2-1.8,1.6
		c-0.7,0.4-1.5,0.6-2.4,0.6c-0.8,0-1.5-0.2-2.1-0.5s-1-0.8-1.4-1.4s-0.5-1.3-0.5-2c0-0.4,0-0.7,0.1-1.1c0.2-0.9,0.5-1.7,1-2.4
		c0.5-0.7,1.1-1.2,1.8-1.6c0.7-0.4,1.5-0.6,2.4-0.6C18.7,90.5,19.4,90.7,20,91z M16.1,92.1c-0.5,0.3-1,0.7-1.4,1.3
		c-0.4,0.5-0.6,1.2-0.8,1.9c-0.1,0.3-0.1,0.6-0.1,0.8c0,0.9,0.3,1.6,0.8,2.1c0.5,0.5,1.2,0.8,2.1,0.8c0.6,0,1.2-0.1,1.8-0.4
		s1-0.7,1.4-1.3c0.4-0.5,0.6-1.2,0.8-1.9c0.1-0.3,0.1-0.6,0.1-0.8c0-0.9-0.3-1.6-0.8-2.1c-0.5-0.5-1.2-0.8-2-0.8
		C17.2,91.6,16.6,91.8,16.1,92.1z"/>
	<path d="M31.8,99.9h-1.2L27,92.6l-1.3,7.3h-1.2l1.6-9.3h1.2l3.5,7.4l1.3-7.4h1.2L31.8,99.9z"/>
	<path d="M44.1,91.4c0.6,0.6,1,1.3,1.1,2.3h-1.3c-0.1-0.6-0.4-1.1-0.9-1.5s-1.1-0.5-1.8-0.5c-0.6,0-1.2,0.1-1.7,0.4
		c-0.5,0.3-1,0.7-1.4,1.3c-0.4,0.5-0.6,1.2-0.8,1.9c-0.1,0.3-0.1,0.6-0.1,0.9c0,0.9,0.2,1.5,0.7,2c0.5,0.5,1.1,0.7,1.9,0.7
		c0.8,0,1.5-0.2,2.1-0.5c0.6-0.4,1.1-0.9,1.4-1.5h1.3c-0.4,1-1.1,1.7-1.9,2.3c-0.8,0.6-1.8,0.8-3,0.8c-0.8,0-1.4-0.2-2-0.5
		c-0.6-0.3-1-0.7-1.3-1.3c-0.3-0.6-0.4-1.2-0.4-1.9c0-0.4,0-0.7,0.1-1c0.2-0.9,0.5-1.7,1-2.5c0.5-0.7,1.1-1.3,1.9-1.7
		s1.5-0.6,2.4-0.6C42.6,90.6,43.5,90.8,44.1,91.4z"/>
	<path d="M54.5,91.2c0.5,0.4,0.7,0.9,0.7,1.6c0,0.2,0,0.4-0.1,0.6c-0.1,0.7-0.4,1.4-0.9,1.8c-0.5,0.5-1.2,0.8-2,0.9l1.9,3.8h-1.4
		l-1.8-3.8h-1.3l-0.7,3.8h-1.2l1.6-9.3h3.1C53.3,90.6,54,90.8,54.5,91.2z M53.9,93c0-0.9-0.6-1.4-1.8-1.4h-1.8l-0.6,3.6h1.8
		c1.4,0,2.1-0.6,2.4-1.8C53.9,93.3,53.9,93.2,53.9,93z"/>
	<path d="M60,91.6l-0.6,3.2H63l-0.2,0.9h-3.5L58.8,99h3.9l-0.2,1h-5.1l1.6-9.3h5.1l-0.2,1H60z"/>
	<path d="M73.4,90.6l-0.2,1h-2.6l-1.5,8.3h-1.2l1.5-8.3h-2.6l0.2-1H73.4z"/>
	<path d="M77.6,91.6L77,94.8h3.5l-0.2,0.9h-3.5L76.3,99h3.9l-0.2,1h-5.1l1.6-9.3h5.1l-0.2,1H77.6z"/>
	<path d="M95.5,94.4c-0.4,0.4-0.8,0.6-1.4,0.7c0.5,0.1,0.9,0.3,1.1,0.7c0.3,0.3,0.4,0.7,0.4,1.2c0,0.1,0,0.3,0,0.4
		c-0.1,0.8-0.5,1.4-1.1,1.8c-0.6,0.5-1.4,0.7-2.4,0.7h-3.5l1.6-9.3h3.4c0.8,0,1.4,0.2,1.9,0.5c0.4,0.3,0.6,0.8,0.6,1.3
		c0,0.1,0,0.3,0,0.5C96.2,93.6,95.9,94,95.5,94.4z M94.5,96.9c0-0.4-0.2-0.7-0.5-1c-0.3-0.2-0.7-0.3-1.3-0.3h-2l-0.6,3.3h2
		c0.6,0,1.2-0.1,1.6-0.4c0.4-0.3,0.7-0.7,0.7-1.2C94.5,97.2,94.5,97.1,94.5,96.9z M95,92.8c0-0.4-0.1-0.7-0.4-0.9
		c-0.3-0.2-0.7-0.3-1.2-0.3h-2l-0.5,3.1h2c0.6,0,1.1-0.1,1.4-0.4c0.4-0.3,0.6-0.7,0.7-1.1C95,93.1,95,93,95,92.8z"/>
	<path d="M104.6,97.8h-4.1l-1.2,2.2h-1.3l5-9.1h1.4l1.8,9.1H105L104.6,97.8z M104.4,96.9l-0.9-4.7l-2.5,4.7H104.4z"/>
	<path d="M116.8,90.6l-0.2,1H114l-1.5,8.3h-1.2l1.5-8.3h-2.6l0.2-1H116.8z"/>
	<path d="M126.8,91.4c0.6,0.6,1,1.3,1.1,2.3h-1.3c-0.1-0.6-0.4-1.1-0.9-1.5s-1.1-0.5-1.8-0.5c-0.6,0-1.2,0.1-1.7,0.4
		c-0.5,0.3-1,0.7-1.4,1.3s-0.6,1.2-0.8,1.9c-0.1,0.3-0.1,0.6-0.1,0.9c0,0.9,0.2,1.5,0.7,2c0.5,0.5,1.1,0.7,1.9,0.7
		c0.8,0,1.5-0.2,2.1-0.5c0.6-0.4,1.1-0.9,1.4-1.5h1.3c-0.4,1-1.1,1.7-1.9,2.3s-1.8,0.8-3,0.8c-0.8,0-1.4-0.2-2-0.5
		c-0.6-0.3-1-0.7-1.3-1.3c-0.3-0.6-0.4-1.2-0.4-1.9c0-0.4,0-0.7,0.1-1c0.2-0.9,0.5-1.7,1-2.5c0.5-0.7,1.1-1.3,1.9-1.7
		c0.7-0.4,1.5-0.6,2.4-0.6C125.2,90.6,126.1,90.8,126.8,91.4z"/>
	<path d="M139.1,90.6l-1.6,9.3h-1.2l0.8-4.3h-4.7l-0.8,4.3h-1.2l1.6-9.3h1.2l-0.7,4h4.7l0.7-4H139.1z"/>
	<path d="M144.2,90.6l-1.6,9.3h-1.2l1.6-9.3H144.2z"/>
	<path d="M153.7,99.9h-1.2l-3.5-7.3l-1.3,7.3h-1.2l1.6-9.3h1.2l3.5,7.4l1.3-7.4h1.2L153.7,99.9z"/>
	<path d="M166.1,91.4c0.6,0.5,1,1.3,1.1,2.2h-1.3c-0.1-0.6-0.4-1-0.9-1.4c-0.5-0.3-1-0.5-1.7-0.5c-0.6,0-1.2,0.1-1.8,0.4
		c-0.5,0.3-1,0.7-1.4,1.3c-0.4,0.5-0.6,1.2-0.8,1.9c-0.1,0.3-0.1,0.6-0.1,0.9c0,0.9,0.3,1.6,0.8,2.1c0.5,0.5,1.2,0.7,2.1,0.7
		c0.6,0,1.1-0.1,1.6-0.4c0.5-0.2,1-0.6,1.4-1.1c0.4-0.5,0.7-1,0.8-1.7h-3.7l0.2-0.9h4.7l-0.2,1.1c-0.2,0.8-0.6,1.5-1,2.1
		s-1.1,1.1-1.8,1.4c-0.7,0.3-1.5,0.5-2.3,0.5c-0.8,0-1.5-0.2-2-0.5c-0.6-0.3-1-0.8-1.3-1.3c-0.3-0.6-0.5-1.2-0.5-2
		c0-0.4,0-0.7,0.1-1c0.2-0.9,0.5-1.7,1-2.4c0.5-0.7,1.1-1.3,1.9-1.7c0.8-0.4,1.6-0.6,2.5-0.6C164.6,90.6,165.5,90.8,166.1,91.4z"/>
	<path d="M177,96.2l-0.7,3.7h-1.2l1.6-9.3h3c0.9,0,1.6,0.2,2.1,0.6s0.7,0.9,0.7,1.6c0,0.2,0,0.4-0.1,0.6c-0.2,0.9-0.6,1.5-1.2,2
		s-1.5,0.7-2.5,0.7H177z M181.2,93.4c0-0.2,0-0.3,0-0.5c0-0.4-0.1-0.7-0.4-1c-0.3-0.2-0.7-0.3-1.4-0.3h-1.6l-0.6,3.5h1.6
		C180.2,95.2,181,94.6,181.2,93.4z"/>
	<path d="M186,99h3.3l-0.2,0.9h-4.5l1.6-9.3h1.2L186,99z"/>
	<path d="M198.2,97.8h-4.1l-1.2,2.2h-1.3l5-9.1h1.4l1.8,9.1h-1.3L198.2,97.8z M198,96.9l-0.9-4.7l-2.5,4.7H198z"/>
	<path d="M210.3,99.9h-1.2l-3.5-7.3l-1.3,7.3h-1.2l1.6-9.3h1.2l3.5,7.4l1.3-7.4h1.2L210.3,99.9z"/>
	<path d="M221.5,90.6l-0.2,1h-2.6l-1.5,8.3h-1.2l1.5-8.3h-2.6l0.2-1H221.5z"/>
	<path d="M228.9,98.9c-0.3,0.3-0.6,0.6-1.1,0.8c-0.4,0.2-1,0.3-1.6,0.3c-0.6,0-1.2-0.1-1.6-0.3c-0.5-0.2-0.8-0.5-1-0.9
		c-0.2-0.4-0.3-0.8-0.3-1.3h1.3c0,0.3,0,0.5,0.2,0.8c0.1,0.3,0.3,0.5,0.6,0.6c0.3,0.2,0.6,0.2,1,0.2c0.6,0,1-0.2,1.4-0.5
		c0.3-0.3,0.5-0.8,0.5-1.3c0-0.3-0.1-0.6-0.3-0.8c-0.2-0.2-0.4-0.4-0.6-0.5c-0.3-0.1-0.6-0.3-1-0.4c-0.5-0.2-0.9-0.4-1.2-0.5
		c-0.3-0.2-0.5-0.4-0.8-0.7c-0.2-0.3-0.3-0.7-0.3-1.1c0-0.2,0-0.4,0.1-0.6c0.1-0.6,0.4-1.1,1-1.5s1.3-0.6,2.1-0.6
		c0.9,0,1.7,0.2,2.1,0.7s0.7,1,0.8,1.7h-1.3c0-0.4-0.2-0.7-0.4-1s-0.7-0.4-1.3-0.4c-0.5,0-1,0.1-1.3,0.4c-0.3,0.3-0.5,0.7-0.5,1.2
		c0,0.3,0.1,0.6,0.2,0.8c0.2,0.2,0.4,0.4,0.6,0.5c0.2,0.1,0.6,0.3,1,0.4c0.5,0.2,0.9,0.4,1.2,0.5c0.3,0.2,0.6,0.4,0.8,0.7
		c0.2,0.3,0.3,0.7,0.3,1.2c0,0.2,0,0.4-0.1,0.6C229.3,98.2,229.1,98.5,228.9,98.9z"/>
</g>
</svg>
